<?xml version="1.0" encoding="UTF-8"?>
<svg width="24" height="24" viewBox="0 0 24 24" fill="none" xmlns="http://www.w3.org/2000/svg">
  <path d="M4.5 7.5C5.32843 7.5 6 8.17157 6 9V10.5C6 11.3284 5.32843 12 4.5 12H3V7.5H4.5ZM3 13.5H4.5C5.32843 13.5 6 14.1716 6 15V16.5C6 17.3284 5.32843 18 4.5 18H3V13.5ZM3 19.5H4.5C5.32843 19.5 6 20.1716 6 21V22.5C6 23.3284 5.32843 24 4.5 24H3V19.5ZM3 1.5H4.5C5.32843 1.5 6 2.17157 6 3V4.5C6 5.32843 5.32843 6 4.5 6H3V1.5ZM7.5 3C7.5 2.17157 8.17157 1.5 9 1.5H10.5C11.3284 1.5 12 2.17157 12 3V4.5C12 5.32843 11.3284 6 10.5 6H9C8.17157 6 7.5 5.32843 7.5 4.5V3ZM12 7.5H13.5C14.3284 7.5 15 8.17157 15 9V10.5C15 11.3284 14.3284 12 13.5 12H12V7.5ZM15 13.5H16.5C17.3284 13.5 18 14.1716 18 15V16.5C18 17.3284 17.3284 18 16.5 18H15V13.5ZM18 19.5H19.5C20.3284 19.5 21 20.1716 21 21V22.5C21 23.3284 20.3284 24 19.5 24H18V19.5ZM21 1.5H22.5C23.3284 1.5 24 2.17157 24 3V4.5C24 5.32843 23.3284 6 22.5 6H21V1.5Z" fill="currentColor"/>
</svg> 