<?xml version="1.0" standalone="no"?>
<!DOCTYPE svg PUBLIC "-//W3C//DTD SVG 20010904//EN"
 "http://www.w3.org/TR/2001/REC-SVG-20010904/DTD/svg10.dtd">
<svg version="1.0" xmlns="http://www.w3.org/2000/svg"
 width="866.000000pt" height="650.000000pt" viewBox="0 0 866.000000 650.000000"
 preserveAspectRatio="xMidYMid meet">

<g transform="translate(0.000000,650.000000) scale(0.100000,-0.100000)"
fill="#000000" stroke="none">
<path d="M1600 3250 l0 -2880 1293 1 1292 0 -60 22 c-263 98 -418 370 -361
635 45 213 220 392 423 435 49 10 53 14 59 44 7 38 -11 151 -32 201 -25 60
-85 132 -153 184 -40 30 -156 94 -291 160 -351 172 -456 253 -528 408 -31 65
-36 88 -40 174 -14 286 105 497 350 620 111 56 242 90 430 114 l137 17 -85 75
c-48 41 -124 118 -171 170 -228 253 -326 469 -359 788 l-6 62 115 0 115 0 7
-67 c17 -175 75 -332 177 -480 74 -108 259 -296 411 -419 113 -90 132 -102
160 -98 399 51 583 110 682 215 53 57 69 108 63 205 -10 149 -85 222 -388 374
-231 116 -305 164 -406 265 -76 75 -98 104 -132 175 -48 101 -72 202 -72 303
l0 74 -52 12 c-177 40 -339 191 -399 372 -31 92 -31 249 0 339 59 171 196 309
355 360 61 19 58 19 -1236 19 l-1298 1 0 -2880z"/>
<path d="M4476 6115 c141 -45 265 -150 334 -285 138 -270 25 -611 -245 -744
-38 -19 -78 -37 -87 -40 -27 -8 -25 -152 2 -231 55 -160 136 -231 445 -390
105 -54 221 -119 260 -144 139 -91 224 -203 260 -341 24 -91 16 -244 -16 -320
-48 -114 -148 -214 -279 -280 -73 -37 -231 -87 -341 -107 -49 -10 -89 -20 -89
-24 0 -4 43 -41 95 -83 123 -99 270 -240 349 -335 177 -212 260 -410 280 -664
l5 -67 -112 0 -113 0 -12 95 c-31 226 -129 404 -332 605 -140 138 -456 396
-500 407 -31 8 -369 -22 -481 -42 -272 -51 -409 -147 -454 -322 -20 -75 -19
-193 0 -240 45 -107 92 -140 474 -327 85 -42 191 -101 236 -131 209 -139 318
-330 319 -562 1 -90 1 -92 26 -98 51 -13 147 -75 206 -134 293 -289 176 -779
-219 -922 -51 -18 -33 -18 1261 -19 l1312 0 0 2880 0 2880 -1312 -1 c-1083 -1
-1306 -3 -1272 -14z"/>
</g>
</svg>
