<svg width="60" height="72" version="1.1" xmlns="http://www.w3.org/2000/svg" desc="Created with imagetracer.js version 1.2.6" ><path fill="rgb(252,251,247)" stroke="rgb(252,251,247)" stroke-width="1" opacity="1" d="M 14.5 8 L 17 8.5 Q 18.1 12.7 14 11 L 14.5 8 Z " /><path fill="rgb(252,251,247)" stroke="rgb(252,251,247)" stroke-width="1" opacity="1" d="M 6 12 Q 9 11 8 14 Q 5 15 6 12 Z " /><path fill="rgb(252,251,247)" stroke="rgb(252,251,247)" stroke-width="1" opacity="1" d="M 18.5 15 Q 21.8 13.9 21 16.5 L 26 26 L 29 27.5 L 24 29.5 L 25.5 33 L 28 34.5 L 29.5 37 L 35 36.5 L 34 34 L 36.5 35 L 39 33.5 L 36.5 37 L 27.5 41 L 18.5 41 L 14 37.5 L 20 37 L 22 29.5 L 18 28 Q 16.9 25.3 19.5 26 L 19.5 25 L 14 26 Q 13 18 18.5 15 Z M 28 38 L 22 40 L 28 40 L 28 38 Z " /><path fill="rgb(252,251,247)" stroke="rgb(252,251,247)" stroke-width="1" opacity="1" d="M 33.5 15 L 32.5 17 L 28 18 Q 26.6 14.3 32.5 16 L 33.5 15 Z " /><path fill="rgb(252,251,247)" stroke="rgb(252,251,247)" stroke-width="1" opacity="1" d="M 23.5 16 L 25 18.5 L 23 17.5 L 23.5 16 Z " /><path fill="rgb(252,251,247)" stroke="rgb(252,251,247)" stroke-width="1" opacity="1" d="M 14.5 17 L 13.5 19 L 14.5 17 Z " /><path fill="rgb(252,251,247)" stroke="rgb(252,251,247)" stroke-width="1" opacity="1" d="M 28.5 23 L 32 25.5 L 30.5 26 L 28.5 23 Z " /><path fill="rgb(252,251,247)" stroke="rgb(252,251,247)" stroke-width="1" opacity="1" d="M 34.5 27 L 37 27.5 L 34.5 28 L 34.5 27 Z " /><path fill="rgb(252,251,247)" stroke="rgb(252,251,247)" stroke-width="1" opacity="1" d="M 43 28 L 47 29.5 Q 47.8 33.3 45.5 34 L 41.5 35 Q 38.5 33.5 41.5 32 L 45 33 L 46 30.5 L 43 29.5 L 43 28 Z " /><path fill="rgb(252,251,247)" stroke="rgb(252,251,247)" stroke-width="1" opacity="1" d="M 14.5 33 L 16 35.5 L 14 34.5 L 14.5 33 Z " /><path fill="rgb(252,251,247)" stroke="rgb(252,251,247)" stroke-width="1" opacity="1" d="M 25 43 Q 29.1 41.7 28 45 L 26 45.5 L 34 47.5 L 32.5 48 Q 31.3 45.7 26.5 47 L 25 45.5 L 25 43 Z " /><path fill="rgb(252,251,247)" stroke="rgb(252,251,247)" stroke-width="1" opacity="1" d="M 22.5 45 L 23.5 47 L 22.5 45 Z " /><path fill="rgb(252,251,247)" stroke="rgb(252,251,247)" stroke-width="1" opacity="1" d="M 33.5 50 Q 37.5 49.5 38 52.5 Q 39.1 55.8 36.5 55 L 37 56.5 L 40 62.5 L 38 63 Q 39.3 66.3 34.5 65 L 31 56.5 L 33 53.5 L 32 51.5 L 33.5 50 Z " /><path fill="rgb(252,251,247)" stroke="rgb(252,251,247)" stroke-width="1" opacity="1" d="M 16.5 57 L 22 58.5 L 18.5 59 L 16.5 57 Z " /><path fill="rgb(252,251,247)" stroke="rgb(252,251,247)" stroke-width="1" opacity="1" d="M 14.5 62 L 15.5 64 L 14.5 62 Z " /><path fill="rgb(252,251,247)" stroke="rgb(252,251,247)" stroke-width="1" opacity="1" d="M 30.5 63 L 34 69.5 L 28 71 Q 26.7 67.7 31.5 69 L 31 67.5 L 30.5 63 Z " /><path fill="rgb(252,251,247)" stroke="rgb(252,251,247)" stroke-width="1" opacity="1" d="M 24.5 68 L 25 70 L 18 71 Q 16.6 67 23.5 69 L 24.5 68 Z " /><path fill="rgb(0,0,0)" stroke="rgb(0,0,0)" stroke-width="1" opacity="0" d="M 0 0 L 60 0 L 60 72 L 36 71.5 L 44.5 68 L 47 65.5 L 44 60.5 L 46 59.5 L 45 61.5 L 47.5 62 Q 50 56.5 52.5 61 L 55 60.5 Q 52 59.5 53 54.5 L 54 49.5 L 51 45.5 L 51 42.5 Q 54 41.5 53 36.5 L 51 33.5 L 49 15.5 L 42.5 6 Q 36 1.5 23.5 3 L 16.5 7 Q 15 3.5 13.5 6 Q 7.2 6.7 5 11.5 Q 1 16 2 25.5 L 3 25.5 L 3.5 21 L 6 30.5 L 5 32.5 L 6 37.5 Q 2.4 38.9 3 44.5 L 7 47 L 5.5 50 L 0 52 L 0 26.5 L 1 25.5 L 0 24.5 L 0 0 Z M 11 4 L 11 5 L 14 5 L 11 4 Z M 4 26 L 3 29 L 4 29 L 4 26 Z " /><path fill="rgb(0,0,0)" stroke="rgb(0,0,0)" stroke-width="1" opacity="0" d="M 10.5 41 L 11 44.5 L 10 44.5 L 10.5 41 Z " /><path fill="rgb(0,0,0)" stroke="rgb(0,0,0)" stroke-width="1" opacity="0" d="M 9.5 48 L 8.5 50 L 9.5 48 Z " /><path fill="rgb(0,0,0)" stroke="rgb(0,0,0)" stroke-width="1" opacity="0" d="M 0 53 Q 3 51.8 2 55.5 L 4.5 59 L 12 64.5 L 11 66.5 L 18 71.5 L 0 72 L 0 53 Z " /><path fill="rgb(193,55,101)" stroke="rgb(193,55,101)" stroke-width="1" opacity="1" d="M 23.5 3 Q 40 1 46 9.5 L 49 15.5 L 50 27.5 Q 52.3 28.8 51 33.5 L 53 36.5 L 53 40.5 Q 50.3 41.3 51 45.5 Q 54.9 47.1 54 53.5 L 53 58.5 L 54.5 61 Q 51 60 52 54.5 L 53 49.5 L 50 45.5 L 50 42.5 Q 53 41.5 52 36.5 L 50 33.5 L 48 15.5 L 42.5 7 Q 36 2.5 23.5 4 L 15.5 8 L 11.5 7 L 9.5 8 L 9.5 7 L 14 5.5 L 10.5 5 L 6 8.5 L 5.5 10 L 5 8.5 Q 7.1 4.1 13.5 4 Q 16 9.5 18.5 5 L 23.5 3 Z " /><path fill="rgb(193,55,101)" stroke="rgb(193,55,101)" stroke-width="1" opacity="1" d="M 15.5 11 L 13 14.5 Q 9.7 18.2 11 26.5 Q 14 29.5 13 36.5 Q 9.4 38.4 10 44.5 L 11 47.5 L 10 47.5 L 9 41.5 Q 12.9 38.9 12 31.5 Q 8.9 27.1 10 18.5 L 15.5 11 Z " /><path fill="rgb(193,55,101)" stroke="rgb(193,55,101)" stroke-width="1" opacity="1" d="M 21.5 13 L 23 17.5 L 21 16.5 L 21.5 13 Z " /><path fill="rgb(193,55,101)" stroke="rgb(193,55,101)" stroke-width="1" opacity="1" d="M 18.5 14 L 20 14.5 L 15.5 18 L 18.5 14 Z " /><path fill="rgb(193,55,101)" stroke="rgb(193,55,101)" stroke-width="1" opacity="1" d="M 3.5 15 L 5 25.5 L 7 29.5 L 7 37.5 L 4 39.5 Q 7 38.5 6 33.5 Q 0.8 29.2 2 18.5 L 3.5 15 Z M 4 21 L 3 26 L 4 26 L 4 21 Z M 5 26 L 4 29 L 5 29 L 5 26 Z " /><path fill="rgb(193,55,101)" stroke="rgb(193,55,101)" stroke-width="1" opacity="1" d="M 41.5 20 L 44 25.5 L 43 25.5 L 41.5 20 Z " /><path fill="rgb(193,55,101)" stroke="rgb(193,55,101)" stroke-width="1" opacity="1" d="M 36.5 26 L 43 30.5 L 41 30.5 L 39.5 33 L 40 31.5 L 38.5 28 L 36.5 26 Z " /><path fill="rgb(193,55,101)" stroke="rgb(193,55,101)" stroke-width="1" opacity="1" d="M 45.5 26 L 47.5 29 L 43 27.5 L 45.5 26 Z " /><path fill="rgb(193,55,101)" stroke="rgb(193,55,101)" stroke-width="1" opacity="1" d="M 17.5 28 L 20 29.5 L 18 30.5 L 18.5 29 L 17.5 28 Z " /><path fill="rgb(193,55,101)" stroke="rgb(193,55,101)" stroke-width="1" opacity="1" d="M 28.5 28 L 31 28.5 L 28 29.5 L 28.5 31 Q 25.5 29.5 28.5 28 Z " /><path fill="rgb(193,55,101)" stroke="rgb(193,55,101)" stroke-width="1" opacity="1" d="M 18.5 33 L 17.5 35 L 16 34.5 L 18.5 33 Z " /><path fill="rgb(193,55,101)" stroke="rgb(193,55,101)" stroke-width="1" opacity="1" d="M 37.5 33 L 36.5 35 L 37.5 33 Z " /><path fill="rgb(193,55,101)" stroke="rgb(193,55,101)" stroke-width="1" opacity="1" d="M 32.5 34 L 32.5 36 L 34 36.5 L 32.5 37 Q 29.5 35.5 32.5 34 Z " /><path fill="rgb(193,55,101)" stroke="rgb(193,55,101)" stroke-width="1" opacity="1" d="M 45.5 36 L 46 37.5 Q 43 39.5 44 45.5 L 45 47.5 L 44 47.5 L 43 40.5 L 45.5 36 Z " /><path fill="rgb(193,55,101)" stroke="rgb(193,55,101)" stroke-width="1" opacity="1" d="M 13.5 38 Q 16.7 40.3 16 46.5 L 14 47.5 L 15 42.5 L 13.5 38 Z " /><path fill="rgb(193,55,101)" stroke="rgb(193,55,101)" stroke-width="1" opacity="1" d="M 38.5 38 L 40 43.5 L 37 45.5 Q 39.8 44.7 39 40.5 L 38.5 38 Z " /><path fill="rgb(193,55,101)" stroke="rgb(193,55,101)" stroke-width="1" opacity="1" d="M 23.5 39 L 26 39.5 L 23.5 40 L 23.5 39 Z " /><path fill="rgb(193,55,101)" stroke="rgb(193,55,101)" stroke-width="1" opacity="1" d="M 35.5 40 L 36 43.5 L 35 43.5 Q 35.8 41.3 33.5 42 L 33.5 41 L 35.5 40 Z " /><path fill="rgb(193,55,101)" stroke="rgb(193,55,101)" stroke-width="1" opacity="1" d="M 17.5 41 L 19 44.5 L 17 43.5 L 17.5 41 Z " /><path fill="rgb(193,55,101)" stroke="rgb(193,55,101)" stroke-width="1" opacity="1" d="M 3.5 44 L 8 47.5 L 5.5 51 L 7 48.5 Q 7.8 46.3 5.5 47 L 3.5 44 Z " /><path fill="rgb(193,55,101)" stroke="rgb(193,55,101)" stroke-width="1" opacity="1" d="M 30.5 44 L 34 46.5 L 32.5 47 L 28 45.5 L 30.5 44 Z " /><path fill="rgb(193,55,101)" stroke="rgb(193,55,101)" stroke-width="1" opacity="1" d="M 30.5 49 L 32 49.5 L 29.5 51 L 30.5 49 Z " /><path fill="rgb(193,55,101)" stroke="rgb(193,55,101)" stroke-width="1" opacity="1" d="M 31.5 51 L 33 54.5 Q 30.3 55.3 31 59.5 L 33 62.5 L 31 61.5 L 30 56.5 L 32 53.5 L 31.5 51 Z " /><path fill="rgb(193,55,101)" stroke="rgb(193,55,101)" stroke-width="1" opacity="1" d="M 29.5 52 L 28.5 54 L 29.5 52 Z " /><path fill="rgb(193,55,101)" stroke="rgb(193,55,101)" stroke-width="1" opacity="1" d="M 44.5 55 L 46 58.5 L 43 60.5 L 45 56.5 L 44.5 55 Z " /><path fill="rgb(193,55,101)" stroke="rgb(193,55,101)" stroke-width="1" opacity="1" d="M 49.5 58 L 50 59.5 L 48 60.5 L 49.5 58 Z " /><path fill="rgb(193,55,101)" stroke="rgb(193,55,101)" stroke-width="1" opacity="1" d="M 13.5 63 L 18 68.5 L 16.5 69 L 12 65.5 L 13.5 63 Z " /><path fill="rgb(193,55,101)" stroke="rgb(193,55,101)" stroke-width="1" opacity="1" d="M 35 66 L 40 66.5 L 36.5 69 L 35 66 Z " /><path fill="rgb(226,216,134)" stroke="rgb(226,216,134)" stroke-width="1" opacity="0.7803921568627451" d="M 4.5 50 L 6.5 50 L 9 50.5 L 5 53 L 6 59 L 3 57.5 L 2 53.5 L 4.5 50 Z " /><path fill="rgb(226,216,134)" stroke="rgb(226,216,134)" stroke-width="1" opacity="0.7803921568627451" d="M 9.5 60 L 13 62.5 Q 11 66 9 61.5 L 9.5 60 Z " /><path fill="rgb(226,216,134)" stroke="rgb(226,216,134)" stroke-width="1" opacity="0.7803921568627451" d="M 28.5 63 L 30 67.5 L 29 67.5 L 28.5 63 Z " /><path fill="rgb(254,195,156)" stroke="rgb(254,195,156)" stroke-width="1" opacity="1" d="M 15.5 27 L 17 27.5 L 12 30 Q 10.8 27 14.5 28 L 15.5 27 Z " /><path fill="rgb(254,195,156)" stroke="rgb(254,195,156)" stroke-width="1" opacity="1" d="M 32.5 28 L 37 28.5 L 31.5 30 L 32.5 28 Z " /><path fill="rgb(254,195,156)" stroke="rgb(254,195,156)" stroke-width="1" opacity="1" d="M 21.5 29 L 22 30.5 L 20 31.5 L 21.5 29 Z " /><path fill="rgb(254,195,156)" stroke="rgb(254,195,156)" stroke-width="1" opacity="1" d="M 24.5 29 L 27 32.5 L 24 30.5 L 24.5 29 Z " /><path fill="rgb(254,195,156)" stroke="rgb(254,195,156)" stroke-width="1" opacity="1" d="M 38 29 L 40 29.5 L 38 30.5 L 38 29 Z " /><path fill="rgb(254,195,156)" stroke="rgb(254,195,156)" stroke-width="1" opacity="1" d="M 39.5 34 Q 42.5 35.5 39.5 37 Q 33.4 42.9 20.5 42 L 20.5 41 Q 34.2 41.7 39.5 34 Z " /><path fill="rgb(254,195,156)" stroke="rgb(254,195,156)" stroke-width="1" opacity="1" d="M 16.5 49 L 17 53.5 L 15.5 55 L 12 53.5 L 12.5 51 L 13 53 L 15.5 54 L 16 52.5 L 16 50.5 L 16.5 49 Z " /><path fill="rgb(254,195,156)" stroke="rgb(254,195,156)" stroke-width="1" opacity="1" d="M 26.5 51 L 28 51.5 Q 24.9 53.3 26.5 55 L 24 54 Q 22.9 51.3 25.5 52 L 26.5 51 Z " /><path fill="rgb(254,195,156)" stroke="rgb(254,195,156)" stroke-width="1" opacity="1" d="M 6.5 56 L 7.5 58 L 10 57 L 11.5 60 L 13 60.5 L 11.5 61 L 8.5 59 Q 7.2 61.3 6 58.5 L 6.5 56 Z " /><path fill="rgb(254,195,156)" stroke="rgb(254,195,156)" stroke-width="1" opacity="1" d="M 27.5 68 L 25.5 71 L 22 70.5 Q 26.3 70.8 27.5 68 Z " /><path fill="rgb(104,29,18)" stroke="rgb(104,29,18)" stroke-width="1" opacity="1" d="M 34.5 29 L 38 30.5 L 36.5 30 Q 33.5 30.5 34.5 29 Z " /><path fill="rgb(104,29,18)" stroke="rgb(104,29,18)" stroke-width="1" opacity="1" d="M 19.5 31 L 20.5 33 L 19.5 31 Z " /><path fill="rgb(104,29,18)" stroke="rgb(104,29,18)" stroke-width="1" opacity="1" d="M 15.5 32 Q 18.8 30.9 18 33.5 L 16.5 33 L 15.5 32 Z " /><path fill="rgb(104,29,18)" stroke="rgb(104,29,18)" stroke-width="1" opacity="1" d="M 31.5 32 L 34 32.5 Q 34.5 36.5 31.5 37 L 28 34.5 L 28.5 33 L 29.5 35 L 31.5 32 Z " /><path fill="rgb(104,29,18)" stroke="rgb(104,29,18)" stroke-width="1" opacity="1" d="M 15.5 34 L 17.5 36 L 20 34.5 L 18.5 37 L 15.5 34 Z " /><path fill="rgb(104,29,18)" stroke="rgb(104,29,18)" stroke-width="1" opacity="1" d="M 31.5 42 L 39 48.5 L 37 49.5 L 41 52.5 L 38.5 51 L 36 49.5 L 36.5 48 L 30.5 52 L 31.5 49 L 27.5 50 L 27.5 49 L 29 48.5 L 25.5 47 L 25 48.5 L 25 50.5 L 24 54 L 28.5 56 L 31.5 54 L 30.5 56 L 28.5 57 L 22.5 53 L 19 55.5 L 25 56.5 L 19.5 57 L 17.5 56 L 15.5 57 Q 12.5 54 6.5 54 L 7.5 56 L 9.5 56 L 14.5 61 L 21 63 L 19.5 66 L 18 66.5 L 26.5 67 L 26.5 66 L 24 64.5 Q 23.3 62.3 25.5 63 L 29.5 60 L 31.5 63 Q 29.5 59 27.5 63 L 25 64.5 L 29 66 L 27.5 70 L 27.5 68 Q 19.5 66 17.5 70 L 17 67.5 L 18.5 65 L 20 64.5 L 14.5 62 L 13 62.5 L 14 61.5 L 9.5 57 Q 5.5 57.5 5 54.5 Q 4.1 51.1 9.5 53 L 16.5 56 L 21 54 L 19 49.5 L 20.5 46 L 21.5 48 L 24 47.5 Q 25.1 44.2 22.5 45 L 23.5 43 L 26.5 47 L 34.5 48 L 32 44.5 L 31.5 42 Z M 23 48 L 20 50 L 21 52 L 24 52 L 25 50 L 23 48 Z " /><path fill="rgb(104,29,18)" stroke="rgb(104,29,18)" stroke-width="1" opacity="1" d="M 43.5 62 L 46 65.5 L 38.5 69 L 39.5 66 Q 34.1 64.1 35 67.5 L 35.5 69 L 34 65 Q 41 66.3 43.5 62 Z " /><path fill="rgb(104,29,18)" stroke="rgb(104,29,18)" stroke-width="1" opacity="1" d="M 29.5 64 L 30.5 66 L 29.5 64 Z " /><path fill="rgb(104,29,18)" stroke="rgb(104,29,18)" stroke-width="1" opacity="1" d="M 12.5 66 L 13.5 68 L 12.5 66 Z " /><path fill="rgb(11,4,4)" stroke="rgb(11,4,4)" stroke-width="1" opacity="1" d="M 46.5 28 Q 48.8 28.8 48 32.5 L 44.5 37 L 41.5 38 L 39.5 38 L 33 41.5 L 43 53.5 L 41 54 Q 42 61.3 47 65.5 L 35.5 72 L 18.5 72 L 11 66.5 L 12.5 63 L 13 64.5 L 12 66.5 L 18.5 71 L 26.5 71 L 28.5 71 L 36 70.5 L 34 70 L 32 63.5 L 33 63.5 L 35.5 69 Q 43.5 70 46 65.5 L 42.5 61 L 42 63 L 40 62.5 L 42 59.5 L 38 51.5 L 40 51.5 Q 38.4 44.6 32.5 42 L 31 42.5 L 31.5 44 L 26.5 46 L 26.5 45 L 30 44 L 29.5 42 L 24.5 44 Q 23.3 41.8 22 44.5 L 21.5 46 L 21 44.5 L 21.5 43 Q 15.8 41.8 13 37.5 L 13.5 34 Q 13.3 38.7 16.5 40 Q 20.2 43.3 28.5 42 L 40.5 36 L 42.5 37 L 46 34.5 L 47 29.5 L 46.5 28 Z " /><path fill="rgb(11,4,4)" stroke="rgb(11,4,4)" stroke-width="1" opacity="1" d="M 13 30 Q 18 29.2 20 32.5 L 19.5 34 Q 18.8 31.3 14.5 32 L 13 32.5 L 13 30 Z " /><path fill="rgb(11,4,4)" stroke="rgb(11,4,4)" stroke-width="1" opacity="1" d="M 31.5 30 Q 37.8 28.8 39 32.5 L 36.5 34 L 36 32 L 32.5 33 L 30.5 33 L 27 32.5 L 31.5 30 Z " /><path fill="rgb(11,4,4)" stroke="rgb(11,4,4)" stroke-width="1" opacity="1" d="M 43.5 30 L 44.5 32 L 43 31.5 L 41.5 34 L 42 32.5 L 43.5 30 Z " /><path fill="rgb(11,4,4)" stroke="rgb(11,4,4)" stroke-width="1" opacity="1" d="M 39.5 58 L 40 60 L 38 59.5 L 39.5 58 Z " /><path fill="rgb(11,4,4)" stroke="rgb(11,4,4)" stroke-width="1" opacity="1" d="M 30.5 66 L 32 68.5 L 29.5 69 L 30 67.5 L 30.5 66 Z " /><path fill="rgb(218,89,133)" stroke="rgb(218,89,133)" stroke-width="1" opacity="0.9921568627450981" d="M 8.5 8 L 6 11.5 L 4.5 15 L 4 13.5 L 8.5 8 Z " /><path fill="rgb(218,89,133)" stroke="rgb(218,89,133)" stroke-width="1" opacity="0.9921568627450981" d="M 22.5 11 L 20.5 14 L 22.5 11 Z " /><path fill="rgb(218,89,133)" stroke="rgb(218,89,133)" stroke-width="1" opacity="0.9921568627450981" d="M 40.5 17 L 42 19.5 L 40 18.5 L 40.5 17 Z " /><path fill="rgb(218,89,133)" stroke="rgb(218,89,133)" stroke-width="1" opacity="0.9921568627450981" d="M 15.5 18 L 15 19.5 L 13.5 24 L 13 21.5 L 15.5 18 Z " /><path fill="rgb(218,89,133)" stroke="rgb(218,89,133)" stroke-width="1" opacity="0.9921568627450981" d="M 22.5 18 L 24 20.5 L 23 20.5 L 22.5 18 Z " /><path fill="rgb(218,89,133)" stroke="rgb(218,89,133)" stroke-width="1" opacity="0.9921568627450981" d="M 28.5 21 L 36 26.5 L 34.5 27 L 32 26.5 L 28.5 21 Z " /><path fill="rgb(218,89,133)" stroke="rgb(218,89,133)" stroke-width="1" opacity="0.9921568627450981" d="M 46.5 21 L 48 27.5 L 44 26.5 L 43 23.5 L 46 22.5 L 46.5 21 Z " /><path fill="rgb(218,89,133)" stroke="rgb(218,89,133)" stroke-width="1" opacity="0.9921568627450981" d="M 18.5 34 L 17.5 36 L 18.5 34 Z " /><path fill="rgb(218,89,133)" stroke="rgb(218,89,133)" stroke-width="1" opacity="0.9921568627450981" d="M 47.5 34 L 46.5 36 L 47.5 34 Z " /><path fill="rgb(218,89,133)" stroke="rgb(218,89,133)" stroke-width="1" opacity="0.9921568627450981" d="M 40.5 37 Q 43.3 38.3 41 39.5 L 40.5 42 L 39 38.5 L 40.5 37 Z " /><path fill="rgb(218,89,133)" stroke="rgb(218,89,133)" stroke-width="1" opacity="0.9921568627450981" d="M 43 37 L 45 37.5 L 43.5 40 L 43 37 Z " /><path fill="rgb(218,89,133)" stroke="rgb(218,89,133)" stroke-width="1" opacity="0.9921568627450981" d="M 37.5 39 L 38 43.5 L 36 44.5 Q 35 40 37.5 39 Z " /><path fill="rgb(218,89,133)" stroke="rgb(218,89,133)" stroke-width="1" opacity="0.9921568627450981" d="M 4.5 40 L 4 41.5 L 3.5 44 L 3 41.5 L 4.5 40 Z " /><path fill="rgb(218,89,133)" stroke="rgb(218,89,133)" stroke-width="1" opacity="0.9921568627450981" d="M 19.5 42 L 21 45.5 L 20 48 Q 17 49.3 18 45.5 L 17.5 44 L 19.5 45 L 19 43.5 L 19.5 42 Z " /><path fill="rgb(218,89,133)" stroke="rgb(218,89,133)" stroke-width="1" opacity="0.9921568627450981" d="M 38.5 45 L 41 45.5 Q 38.9 48.8 38.5 45 Z " /><path fill="rgb(218,89,133)" stroke="rgb(218,89,133)" stroke-width="1" opacity="0.9921568627450981" d="M 14.5 48 L 13.5 50 L 14.5 48 Z " /><path fill="rgb(218,89,133)" stroke="rgb(218,89,133)" stroke-width="1" opacity="0.9921568627450981" d="M 44.5 48 L 46 51.5 L 45 51.5 L 44.5 48 Z " /><path fill="rgb(218,89,133)" stroke="rgb(218,89,133)" stroke-width="1" opacity="0.9921568627450981" d="M 29.5 49 L 30.5 51 L 29.5 49 Z " /><path fill="rgb(218,89,133)" stroke="rgb(218,89,133)" stroke-width="1" opacity="0.9921568627450981" d="M 9.5 50 L 8.5 52 L 9.5 50 Z " /><path fill="rgb(218,89,133)" stroke="rgb(218,89,133)" stroke-width="1" opacity="0.9921568627450981" d="M 44.5 53 L 46 55.5 L 44 54.5 L 44.5 53 Z " /><path fill="rgb(218,89,133)" stroke="rgb(218,89,133)" stroke-width="1" opacity="0.9921568627450981" d="M 52.5 59 L 53.5 61 L 52.5 59 Z " /><path fill="rgb(218,89,133)" stroke="rgb(218,89,133)" stroke-width="1" opacity="0.9921568627450981" d="M 10.5 60 L 11.5 62 L 10.5 60 Z " /><path fill="rgb(245,137,160)" stroke="rgb(245,137,160)" stroke-width="1" opacity="0.996078431372549" d="M 30.5 4 L 35 4.5 L 29.5 6 L 30.5 4 Z " /><path fill="rgb(245,137,160)" stroke="rgb(245,137,160)" stroke-width="1" opacity="0.996078431372549" d="M 20.5 5 L 26 8.5 L 23.5 7 L 19 7.5 L 24 10.5 L 22 11.5 L 22.5 13 Q 21 10.5 19.5 14 L 17 11.5 L 18.5 12 Q 22.3 13 21 10 L 17 8.5 L 18.5 6 L 20.5 5 Z " /><path fill="rgb(245,137,160)" stroke="rgb(245,137,160)" stroke-width="1" opacity="0.996078431372549" d="M 38.5 5 L 44 8.5 L 48 15.5 L 49 27.5 Q 51.3 28.8 50 33.5 L 52 36.5 L 52 40.5 Q 49.2 41.3 50 45.5 Q 53.6 47.4 53 53.5 Q 50.8 54.8 52 59.5 L 52.5 61 Q 49.5 60.5 50 56.5 L 51 51.5 L 48 47.5 Q 48.8 42.8 46.5 41 L 44 48.5 L 46 48.5 L 45 52 L 49 54.5 Q 49.1 60.1 45.5 62 L 46 60.5 Q 46.9 55.1 44.5 53 L 44 55.5 L 45 58.5 L 43.5 60 L 41 59.5 L 42 56.5 L 40 56.5 L 41 54 L 43 53.5 L 40.5 50 L 39 50.5 L 40 46.5 L 38 46.5 L 39 44.5 L 37 44.5 L 38.5 40 L 39.5 44 L 42.5 38 L 43.5 46 Q 43.2 37.7 48 34.5 L 48 24.5 L 46.5 21 L 44.5 24 L 42.5 21 Q 39.3 22.8 43 24.5 L 44 26.5 L 42 27.5 L 43 29.5 L 40.5 33 L 41 31.5 L 42 29.5 L 37 27 L 34 21.5 L 38.5 25 L 41.5 26 L 40 23.5 L 39 21.5 L 42 20.5 L 41.5 19 L 40 19.5 L 41 17 Q 38.3 18.1 39 15.5 Q 36.4 10.6 30 9.5 L 32.5 9 L 41.5 13 L 43 9.5 L 38.5 5 Z " /><path fill="rgb(245,137,160)" stroke="rgb(245,137,160)" stroke-width="1" opacity="0.996078431372549" d="M 14.5 7 L 15.5 9 L 14.5 7 Z " /><path fill="rgb(245,137,160)" stroke="rgb(245,137,160)" stroke-width="1" opacity="0.996078431372549" d="M 9.5 8 L 8.5 10 L 9.5 8 Z " /><path fill="rgb(245,137,160)" stroke="rgb(245,137,160)" stroke-width="1" opacity="0.996078431372549" d="M 14.5 11 L 17.5 15 Q 13.3 14.3 12.5 17 L 11 16.5 L 12 19.5 L 11 19.5 L 10.5 18 L 10 26.5 L 13 26.5 L 13.5 24 L 15 27.5 L 11 27.5 L 12 34.5 L 10 37.5 L 10.5 39 L 8.5 39 L 7 38.5 L 7 36.5 L 8 27.5 L 7 22.5 Q 8.8 14.8 14.5 11 Z M 15 12 L 13 14 L 15 14 L 15 12 Z " /><path fill="rgb(245,137,160)" stroke="rgb(245,137,160)" stroke-width="1" opacity="0.996078431372549" d="M 4.5 15 L 5 20.5 L 4 20.5 L 4.5 15 Z " /><path fill="rgb(245,137,160)" stroke="rgb(245,137,160)" stroke-width="1" opacity="0.996078431372549" d="M 27.5 19 L 28 21.5 L 27 21.5 L 27.5 19 Z " /><path fill="rgb(245,137,160)" stroke="rgb(245,137,160)" stroke-width="1" opacity="0.996078431372549" d="M 24.5 21 L 28.5 26 L 32 27 L 30.5 30 L 29.5 27 L 24 22.5 L 24.5 21 Z " /><path fill="rgb(245,137,160)" stroke="rgb(245,137,160)" stroke-width="1" opacity="0.996078431372549" d="M 31.5 23 L 32.5 25 L 31.5 23 Z " /><path fill="rgb(245,137,160)" stroke="rgb(245,137,160)" stroke-width="1" opacity="0.996078431372549" d="M 34.5 25 L 33.5 27 L 34.5 25 Z " /><path fill="rgb(245,137,160)" stroke="rgb(245,137,160)" stroke-width="1" opacity="0.996078431372549" d="M 28.5 35 L 29.5 37 L 28.5 35 Z " /><path fill="rgb(245,137,160)" stroke="rgb(245,137,160)" stroke-width="1" opacity="0.996078431372549" d="M 12.5 38 L 14 39.5 L 15.5 47 L 16 42.5 L 15 40.5 L 16 40.5 L 18 48 L 20 48.5 L 17.5 53 L 16.5 49 L 15 53 Q 12.3 54.1 13 51.5 L 11.5 49 L 10 49.5 L 12.5 38 Z M 13 42 L 12 49 L 13 49 L 13 42 Z " /><path fill="rgb(245,137,160)" stroke="rgb(245,137,160)" stroke-width="1" opacity="0.996078431372549" d="M 18.5 42 L 20 44.5 L 18 43.5 L 18.5 42 Z " /><path fill="rgb(245,137,160)" stroke="rgb(245,137,160)" stroke-width="1" opacity="0.996078431372549" d="M 4.5 44 L 10 45 Q 10.8 48.8 7.5 50 L 8 48.5 L 6.5 46 L 4.5 44 Z " /><path fill="rgb(245,137,160)" stroke="rgb(245,137,160)" stroke-width="1" opacity="0.996078431372549" d="M 28.5 50 Q 31.5 51.5 28.5 53 L 27 52.5 L 28.5 50 Z " /><path fill="rgb(245,137,160)" stroke="rgb(245,137,160)" stroke-width="1" opacity="0.996078431372549" d="M 6.5 59 L 8.5 59 L 10 59.5 L 8 60.5 L 8.5 62 L 6.5 59 Z " /><path fill="rgb(245,137,160)" stroke="rgb(245,137,160)" stroke-width="1" opacity="0.996078431372549" d="M 42.5 61 L 43 62.5 L 41 63.5 L 42.5 61 Z " /><path fill="rgb(245,187,190)" stroke="rgb(245,187,190)" stroke-width="1" opacity="1" d="M 24.5 4 L 26 4.5 Q 23.7 5.8 26.5 7 L 28.5 4 L 35 6.5 L 30 9.5 L 32.5 10 L 38 7.5 L 37 5.5 L 39.5 7 L 43 9.5 L 41.5 13 L 35.5 11 L 39 15.5 L 42 22.5 L 40 22.5 L 42 25.5 L 40.5 26 L 35.5 22 L 35 23.5 L 36.5 26 L 29.5 22 L 28 23.5 L 31 26.5 L 29.5 28 L 29.5 26 L 27.5 25 L 26 25.5 L 26 21.5 L 24.5 12 L 22.5 16 L 22 13.5 L 24 10.5 L 19 7.5 L 20.5 8 L 24 6.5 L 21 5.5 L 24.5 4 Z M 34 10 L 32 12 L 35 13 L 35 11 L 34 10 Z M 32 14 L 27 15 L 31 21 L 31 20 Q 32 16 37 17 Q 36 13 32 14 Z M 28 19 L 27 22 L 29 22 L 28 19 Z " /><path fill="rgb(245,187,190)" stroke="rgb(245,187,190)" stroke-width="1" opacity="1" d="M 12.5 7 Q 15.9 6.1 14 11.5 Q 7.2 15.7 7 26.5 L 9 32.5 L 8 32.5 L 5 25.5 L 5 21.5 Q 7.3 20.3 6 15.5 L 7.5 14 L 9.5 15 L 11.5 12 Q 8.2 13.1 9 10.5 L 10 8 L 12.5 7 Z " /><path fill="rgb(245,187,190)" stroke="rgb(245,187,190)" stroke-width="1" opacity="1" d="M 17.5 9 L 18.5 11 L 21 10 L 20.5 12 Q 19.2 9.8 18 12.5 L 18.5 14 L 16 12.5 L 17.5 9 Z " /><path fill="rgb(245,187,190)" stroke="rgb(245,187,190)" stroke-width="1" opacity="1" d="M 14.5 15 L 17 15.5 L 12.5 18 L 14.5 15 Z " /><path fill="rgb(245,187,190)" stroke="rgb(245,187,190)" stroke-width="1" opacity="1" d="M 13.5 20 L 13 21.5 Q 11.8 26.2 14 27.5 L 11 25.5 Q 9.1 20.1 12.5 21 L 13.5 20 Z " /><path fill="rgb(245,187,190)" stroke="rgb(245,187,190)" stroke-width="1" opacity="1" d="M 24.5 31 L 25.5 33 L 24.5 31 Z " /><path fill="rgb(245,187,190)" stroke="rgb(245,187,190)" stroke-width="1" opacity="1" d="M 14.5 32 L 15.5 34 L 14.5 32 Z " /><path fill="rgb(245,187,190)" stroke="rgb(245,187,190)" stroke-width="1" opacity="1" d="M 34 32 Q 37 31 36 34 Q 33 35 34 32 Z " /><path fill="rgb(245,187,190)" stroke="rgb(245,187,190)" stroke-width="1" opacity="1" d="M 39.5 33 L 41.5 36 L 39.5 33 Z " /><path fill="rgb(245,187,190)" stroke="rgb(245,187,190)" stroke-width="1" opacity="1" d="M 11.5 35 L 12 36.5 L 9 42 L 5 39.5 L 8 37.5 L 7.5 39 L 11 36.5 L 11.5 35 Z " /><path fill="rgb(245,187,190)" stroke="rgb(245,187,190)" stroke-width="1" opacity="1" d="M 33.5 35 L 34.5 37 L 33.5 35 Z " /><path fill="rgb(245,187,190)" stroke="rgb(245,187,190)" stroke-width="1" opacity="1" d="M 11.5 39 Q 13.9 42.1 13 48.5 L 11 49.5 Q 13.5 48 12 42.5 L 11.5 39 Z " /><path fill="rgb(245,187,190)" stroke="rgb(245,187,190)" stroke-width="1" opacity="1" d="M 46.5 41 Q 48.8 42.8 48 47.5 L 51 51.5 L 51 55.5 L 46.5 62 L 48 59.5 L 49 54.5 L 46 51.5 L 45 44.5 L 46.5 41 Z " /><path fill="rgb(245,187,190)" stroke="rgb(245,187,190)" stroke-width="1" opacity="1" d="M 29.5 42 L 30 44 L 28 43.5 L 29.5 42 Z " /><path fill="rgb(245,187,190)" stroke="rgb(245,187,190)" stroke-width="1" opacity="1" d="M 4.5 43 Q 10.3 41.3 9 45 Q 4.3 46 4.5 43 Z " /><path fill="rgb(245,187,190)" stroke="rgb(245,187,190)" stroke-width="1" opacity="1" d="M 34.5 47 L 39 49.5 L 37 50.5 L 42 60.5 L 39.5 62 L 39 60.5 L 40 58 Q 36.3 59.5 37 56.5 L 36.5 55 Q 39.1 55.8 38 52.5 Q 34.9 50.8 36.5 49 L 32.5 51 L 33.5 49 L 35 48.5 L 34.5 47 Z " /><path fill="rgb(245,187,190)" stroke="rgb(245,187,190)" stroke-width="1" opacity="1" d="M 26.5 48 L 29 48.5 L 26.5 49 L 26.5 48 Z " /><path fill="rgb(245,187,190)" stroke="rgb(245,187,190)" stroke-width="1" opacity="1" d="M 30.5 52 L 31 54 L 29 53.5 L 30.5 52 Z " /><path fill="rgb(245,187,190)" stroke="rgb(245,187,190)" stroke-width="1" opacity="1" d="M 38 63 L 41 63.5 L 38 65 L 38 63 Z " /><path fill="rgb(216,151,52)" stroke="rgb(216,151,52)" stroke-width="1" opacity="1" d="M 27.5 28 L 30 29.5 L 25.5 31 L 27.5 28 Z " /><path fill="rgb(216,151,52)" stroke="rgb(216,151,52)" stroke-width="1" opacity="1" d="M 18.5 29 L 19.5 31 L 18.5 29 Z " /><path fill="rgb(216,151,52)" stroke="rgb(216,151,52)" stroke-width="1" opacity="1" d="M 44.5 30 L 44 31.5 L 43.5 33 L 43 31.5 L 44.5 30 Z " /><path fill="rgb(216,151,52)" stroke="rgb(216,151,52)" stroke-width="1" opacity="1" d="M 21 46 L 24 47.5 L 21 47.5 L 21 46 Z " /><path fill="rgb(216,151,52)" stroke="rgb(216,151,52)" stroke-width="1" opacity="1" d="M 19.5 50 L 20 52.5 L 15.5 56 L 17.5 53 Q 20.4 53.7 19.5 50 Z " /><path fill="rgb(216,151,52)" stroke="rgb(216,151,52)" stroke-width="1" opacity="1" d="M 22.5 50 L 23.5 52 L 21 51.5 L 22.5 50 Z " /><path fill="rgb(216,151,52)" stroke="rgb(216,151,52)" stroke-width="1" opacity="1" d="M 21.5 54 L 28.5 57 L 30 56.5 L 30 58.5 L 31 60.5 L 28 61.5 L 31 62.5 L 28 63.5 L 29 65.5 L 27 64.5 L 28 62.5 L 26.5 62 L 24 63 L 25.5 66 L 27 66.5 L 23.5 67 L 23.5 65 L 14.5 61 L 13 61.5 L 14 60.5 L 9.5 56 L 7 55.5 L 9.5 55 L 16.5 60 L 26.5 60 L 29 58.5 L 21.5 55 L 21.5 54 Z M 20 61 L 22 63 L 26 62 L 20 61 Z " /><path fill="rgb(216,151,52)" stroke="rgb(216,151,52)" stroke-width="1" opacity="1" d="M 19.5 55 L 18.5 57 L 17 56.5 L 19.5 55 Z " /><path fill="rgb(216,151,52)" stroke="rgb(216,151,52)" stroke-width="1" opacity="1" d="M 14.5 63 L 19 66.5 L 16 66.5 L 14.5 63 Z " /><path fill="rgb(216,151,52)" stroke="rgb(216,151,52)" stroke-width="1" opacity="1" d="M 19.5 68 L 24 68.5 L 19.5 69 L 19.5 68 Z " /><path fill="rgb(216,151,52)" stroke="rgb(216,151,52)" stroke-width="1" opacity="1" d="M 33.5 70 L 36 70.5 L 33.5 71 L 33.5 70 Z " /><path fill="rgb(254,235,173)" stroke="rgb(254,235,173)" stroke-width="1" opacity="0.9215686274509803" d="M 26.5 4 L 28 4.5 L 26.5 7 Q 23.5 5.5 26.5 4 Z " /><path fill="rgb(254,235,173)" stroke="rgb(254,235,173)" stroke-width="1" opacity="0.9215686274509803" d="M 34.5 5 L 38 6.5 L 36.5 9 L 31 8.5 L 35 6.5 L 34.5 5 Z " /><path fill="rgb(254,235,173)" stroke="rgb(254,235,173)" stroke-width="1" opacity="0.9215686274509803" d="M 9.5 9 L 9 10.5 Q 8.2 13.1 11.5 12 L 13 11.5 L 8 15 L 7 11.5 L 9.5 9 Z " /><path fill="rgb(254,235,173)" stroke="rgb(254,235,173)" stroke-width="1" opacity="0.9215686274509803" d="M 18.5 10 L 19.5 12 L 18.5 10 Z " /><path fill="rgb(254,235,173)" stroke="rgb(254,235,173)" stroke-width="1" opacity="0.9215686274509803" d="M 25.5 11 L 25 12.5 L 24.5 18 L 23 14.5 L 25.5 11 Z " /><path fill="rgb(254,235,173)" stroke="rgb(254,235,173)" stroke-width="1" opacity="0.9215686274509803" d="M 32.5 11 L 37 14.5 L 36 15.5 L 37.5 18 L 33.5 17 L 31 20.5 L 32.5 23 L 28.5 18 L 33 16.5 L 28.5 16 L 27 16.5 L 26 14.5 L 27.5 15 L 35 13.5 L 32.5 11 Z " /><path fill="rgb(254,235,173)" stroke="rgb(254,235,173)" stroke-width="1" opacity="0.9215686274509803" d="M 5 14 L 7 14.5 L 5.5 21 L 5 14 Z " /><path fill="rgb(254,235,173)" stroke="rgb(254,235,173)" stroke-width="1" opacity="0.9215686274509803" d="M 13.5 17 L 14 19.5 L 12.5 21 L 11 20.5 L 13.5 17 Z " /><path fill="rgb(254,235,173)" stroke="rgb(254,235,173)" stroke-width="1" opacity="0.9215686274509803" d="M 24.5 19 Q 27.1 18.2 26 21.5 L 26.5 23 L 24.5 19 Z " /><path fill="rgb(254,235,173)" stroke="rgb(254,235,173)" stroke-width="1" opacity="0.9215686274509803" d="M 5.5 40 L 9 42.5 L 6.5 43 L 4 42.5 L 5.5 40 Z " /><path fill="rgb(254,235,173)" stroke="rgb(254,235,173)" stroke-width="1" opacity="0.9215686274509803" d="M 22.5 48 L 24 50.5 L 21.5 51 L 20 49.5 L 22 49.5 L 22.5 48 Z " /><path fill="rgb(254,235,173)" stroke="rgb(254,235,173)" stroke-width="1" opacity="0.9215686274509803" d="M 11.5 50 L 12 54 L 10 54.5 L 18.5 59 L 21.5 59 L 21.5 58 L 19 57.5 L 27.5 57 L 30 57.5 Q 26.6 62.1 16.5 60 L 7 54.5 L 10 53.5 L 9.5 52 Q 12 52.7 11.5 50 Z " /><path fill="rgb(254,235,173)" stroke="rgb(254,235,173)" stroke-width="1" opacity="0.9215686274509803" d="M 15.5 53 L 14.5 55 L 15.5 53 Z " /><path fill="rgb(254,235,173)" stroke="rgb(254,235,173)" stroke-width="1" opacity="0.9215686274509803" d="M 19.5 53 L 18.5 55 L 16.5 56 L 17.5 54 L 19.5 53 Z " /><path fill="rgb(254,235,173)" stroke="rgb(254,235,173)" stroke-width="1" opacity="0.9215686274509803" d="M 27.5 54 L 31 54.5 L 28.5 56 L 27.5 54 Z " /><path fill="rgb(254,235,173)" stroke="rgb(254,235,173)" stroke-width="1" opacity="0.9215686274509803" d="M 10.5 58 L 11.5 60 L 10.5 58 Z " /><path fill="rgb(254,235,173)" stroke="rgb(254,235,173)" stroke-width="1" opacity="0.9215686274509803" d="M 19.5 61 L 26 61.5 L 21.5 63 L 19.5 61 Z " /><path fill="rgb(254,235,173)" stroke="rgb(254,235,173)" stroke-width="1" opacity="0.9215686274509803" d="M 15.5 62 L 20 64.5 L 17.5 65 L 15.5 62 Z " /><path fill="rgb(254,235,173)" stroke="rgb(254,235,173)" stroke-width="1" opacity="0.9215686274509803" d="M 26.5 63 L 27 65 L 25 64.5 L 26.5 63 Z " /><path fill="rgb(254,235,173)" stroke="rgb(254,235,173)" stroke-width="1" opacity="0.9215686274509803" d="M 21.5 64 L 24 65.5 L 22 66.5 L 21.5 64 Z " /><path fill="rgb(254,235,173)" stroke="rgb(254,235,173)" stroke-width="1" opacity="0.9215686274509803" d="M 25 68 L 27 68.5 L 25 69.5 L 25 68 Z " /></svg>